Coordinates
version=1
nRows=16
nColumns=36
inDegrees=yes

Units are S.I. units (second, meters, Newtons, ...)
If the header above contains a line with 'inDegrees', this indicates whether rotational values are in degrees (yes) or radians (no).

endheader
time	pelvis_tilt	pelvis_list	pelvis_rotation	pelvis_tx	pelvis_ty	pelvis_tz	hip_flexion_r	hip_adduction_r	hip_rotation_r	knee_angle_r	knee_angle_r_beta	ankle_angle_r	subtalar_angle_r	mtp_angle_r	hip_flexion_l	hip_adduction_l	hip_rotation_l	knee_angle_l	knee_angle_l_beta	ankle_angle_l	subtalar_angle_l	mtp_angle_l	lumbar_extension	lumbar_bending	lumbar_rotation	arm_flex_r	arm_add_r	arm_rot_r	elbow_flex_r	pro_sup_r	arm_flex_l	arm_add_l	arm_rot_l	elbow_flex_l	pro_sup_l
      3.46666670	      0.24994062	     -2.08153067	      6.44898481	      1.20403944	      0.93033446	     -0.67943782	      7.15141846	      0.12402731	     -5.21873423	     27.56746948	      0.48114311	      9.91794770	    -13.25357155	     -7.49999987	      5.23838125	     -3.88642727	     -6.45833574	     20.85140139	      0.36392561	      0.30990693	     -8.68693710	     -7.49999987	    -17.19858958	     -0.49891576	      3.26911259	      0.58746494	    -11.11413302	     12.26617510	     22.50796282	     70.85285884	      8.13049159	    -11.15074024	     10.35326940	     17.86395673	     69.85433813
      3.48333330	      0.39244351	     -1.98100060	      6.53874250	      1.20319928	      0.92804467	     -0.67902949	      6.21622477	      0.24144528	     -5.18558786	     26.08100907	      0.45519948	     10.16241372	    -12.98858610	     -7.49999987	      4.88417829	     -3.71560266	     -6.20758313	     20.32665402	      0.35476704	      0.39675074	     -8.79363059	     -7.49999987	    -16.89463533	     -0.56845410	      3.31672222	      0.37395980	    -11.17527879	     12.16037450	     23.02613152	     70.58736873	      8.34262043	    -11.28958176	     10.36646968	     18.51182118	     69.61827753
      3.50000000	      0.69296242	     -1.93224969	      6.66628401	      1.20332663	      0.93120692	     -0.67909382	      4.75491996	      0.36256996	     -5.58392618	     23.91861704	      0.41745862	     10.53363878	    -12.14011300	     -7.49999987	      4.17727987	     -3.58792135	     -5.86757070	     19.47799722	      0.33995518	      0.69311497	     -8.76140694	     -7.49999987	    -16.73899216	     -0.54455486	      3.19033347	      0.28652763	    -11.25001762	     12.02665521	     23.76717504	     70.95296193	      8.48680520	    -11.54389498	     10.33234023	     19.35471948	     69.96101926
      3.51666670	      0.68327170	     -1.92847877	      6.67736739	      1.20251246	      0.92793619	     -0.67845479	      4.08524563	      0.49774634	     -5.71037391	     22.54545236	      0.39349237	     10.87139914	    -11.66177673	     -7.49999987	      4.09873905	     -3.48576266	     -5.20430679	     19.17688918	      0.33469986	      1.21810270	     -8.87438970	     -7.49999987	    -16.39017699	     -0.58863361	      3.15082738	      0.25289954	    -11.28267968	     11.95466751	     24.80868226	     70.17232312	      8.58261754	    -11.63026644	     10.14848349	     20.17658033	     69.20445600
      3.53333330	      0.71038862	     -1.88395041	      6.69111998	      1.20240067	      0.92802952	     -0.67812823	      3.28260441	      0.58103484	     -5.89869731	     21.01700913	      0.36681601	     11.00646985	    -11.08030908	     -7.49999987	      3.83703911	     -3.38324902	     -4.75708404	     18.72634246	      0.32683633	      1.79180428	     -8.71854775	     -7.49999987	    -16.00870149	     -0.68669944	      3.27508364	      0.39498004	    -11.30336182	     12.13304900	     25.37682912	     70.51990416	      9.00520214	    -11.67087461	     10.25355154	     20.38694230	     69.52082363
      3.55000000	      0.73258619	     -1.91294967	      6.69851494	      1.20204104	      0.92873752	     -0.67823098	      2.68407558	      0.69694437	     -5.97722361	     19.86579901	      0.34672360	     11.14519868	    -10.64777729	     -7.49999987	      3.54753654	     -3.34080046	     -4.37295274	     18.23027225	      0.31817827	      2.51967828	     -8.46531998	     -7.49999987	    -15.44520461	     -0.66663754	      3.31658129	      0.39435962	    -11.28250942	     12.25823692	     26.18804811	     70.47148888	      9.21718301	    -11.69095339	     10.25377313	     20.58377552	     69.47307694
      3.56666670	      0.97083250	     -1.93986252	      6.56842301	      1.20533463	      0.92920410	     -0.67403207	      1.78904640	      0.88797812	     -6.05477818	     18.68624032	      0.32613642	     11.09404256	    -10.13695593	     -7.49999987	      2.91670209	     -3.40230615	     -4.08886370	     17.58925290	      0.30699038	      2.73906049	     -8.31874571	     -7.49999987	    -14.96425035	     -0.68187874	      3.45708518	      0.34943349	    -11.18564475	     12.33682561	     26.94351337	     71.44513177	      9.43856287	    -11.78098412	     10.14617379	     20.68478874	     70.38899364
      3.58333330	      1.16046414	     -2.04201775	      6.40542338	      1.20507216	      0.93295776	     -0.67436920	      0.80618701	      1.16489820	     -6.05677629	     17.20108527	      0.30021557	     10.72422592	     -9.70688871	     -7.49999987	      2.04365942	     -3.52050020	     -3.92057089	     16.25828166	      0.28376055	      2.88168476	     -7.92642767	     -7.49999987	    -14.30466640	     -0.54246074	      3.52426879	      0.50749437	    -10.98748003	     12.24543403	     27.23992742	     71.30903438	      9.42483723	    -11.84400598	      9.90410083	     21.00668714	     70.23568627
      3.60000000	      1.32840250	     -2.18126007	      6.15709292	      1.20453489	      0.93241957	     -0.67413491	      0.12608322	      1.43721176	     -5.95770999	     16.18989616	      0.28256699	     10.43778485	     -9.56142941	     -7.49999987	      1.10890888	     -3.61848505	     -3.77659542	     14.96574700	      0.26120156	      3.00985069	     -7.62740811	     -7.49999987	    -13.70492089	     -0.39540648	      3.70452315	      0.74707779	    -10.75000442	     12.29939349	     27.13513641	     71.30702199	      9.68326399	    -11.72098151	      9.73795440	     20.74002702	     70.18648250
      3.61666670	      1.49961644	     -2.29392922	      5.81793641	      1.20387166	      0.93274579	     -0.67393085	     -0.37868701	      1.65504973	     -5.77273596	     15.48720414	      0.27030270	     10.34745966	     -9.44418645	     -7.49999987	      0.30714802	     -3.71131325	     -3.76894251	     13.96096549	      0.24366481	      3.29335676	     -7.16652598	     -7.49999987	    -13.28662375	     -0.25236439	      3.68325558	      0.93621614	    -10.54952954	     12.34439359	     27.66045636	     70.49569721	      9.92780267	    -11.74119401	      9.49869730	     21.10124332	     69.38456822
      3.63333330	      1.65880468	     -2.38566886	      5.57297234	      1.20294808	      0.92820796	     -0.67320167	     -0.60855527	      1.80008910	     -5.72043053	     15.28320669	      0.26674228	     10.62253761	     -9.22700097	     -7.49999987	     -0.22941385	     -3.77546973	     -3.68457718	     13.47085375	      0.23511075	      3.76472737	     -6.89219708	     -7.49999987	    -12.90357156	     -0.10482411	      3.44885091	      1.26904439	    -10.42659873	     12.73490103	     28.21115536	     71.57104465	      9.98534343	    -11.83028616	      8.98739862	     21.96945416	     70.20489535
      3.65000000	      1.79527327	     -2.41751635	      5.22675138	      1.20240830	      0.92871170	     -0.67292290	     -0.77364937	      1.87908655	     -5.33291822	     15.13822958	      0.26421195	     10.68228922	     -9.50088545	     -7.49999987	     -0.59667193	     -3.77832988	     -3.71720523	     13.31383037	      0.23237018	      4.16181401	     -6.80429569	     -7.49999987	    -12.68737186	     -0.05057497	      3.48472669	      1.59053242	    -10.28895700	     12.72739985	     29.24033536	     70.44756866	     10.20892106	    -11.78227689	      8.69350241	     22.98994142	     69.15186359
      3.66666670	      1.89914862	     -2.49639470	      4.86459169	      1.20205727	      0.92855052	     -0.67242114	     -0.99584741	      1.99048038	     -5.04547148	     14.78406636	      0.25803063	     10.65046881	     -9.63096477	     -7.49999987	     -0.93682410	     -3.81748103	     -3.63577864	     13.14941338	      0.22950056	      4.32423280	     -7.02754998	     -7.49999987	    -12.28612006	      0.11025478	      3.62445447	      1.99828912	    -10.16919869	     12.93069632	     30.10912959	     69.70818324	     10.60778318	    -11.64212878	      8.65285846	     23.62868352	     68.46677083
      3.68333330	      1.83719219	     -2.47268533	      4.64917035	      1.19813013	      0.92860400	     -0.67618141	     -0.97913679	      1.89176976	     -4.94077413	     14.54940092	      0.25393495	     10.74508061	     -9.54882059	     -7.49999987	     -1.00425480	     -3.69252323	     -3.53483798	     12.97993444	      0.22654259	      4.51969266	     -7.01289763	     -7.49999987	    -11.88221550	      0.18216022	      3.57992379	      2.63014695	     -9.98766949	     12.97398019	     30.41853632	     69.76667803	     11.13651815	    -11.40071287	      8.69450596	     23.88148633	     68.51980170
      3.70000000	      1.78551406	     -2.47934069	      4.33183530	      1.20128435	      0.92876042	     -0.67160966	     -1.11859767	      1.90389778	     -4.70170080	     14.11207830	      0.24630223	     10.90470281	     -9.26857156	     -7.49999987	     -1.18227316	     -3.66124706	     -3.49336342	     12.60744398	      0.22004141	      4.92560111	     -7.07030808	     -7.49999987	    -11.41201744	      0.24159573	      3.60030231	      3.07666085	     -9.77773294	     13.16021951	     30.85705958	     69.92681116	     11.47231477	    -11.24601858	      8.73861140	     24.13038782	     68.64135484
      3.71666670	      1.92810982	     -2.50879655	      3.98323867	      1.20068238	      0.92925509	     -0.67125739	     -1.52287677	      1.91445562	     -4.64008625	     13.56341959	      0.23672633	     11.17329010	     -8.52607914	     -7.49999987	     -1.75394548	     -3.66256356	     -3.73671707	     11.92302669	      0.20809607	      5.08665091	     -6.83210716	     -7.49999987	    -11.27118172	      0.34122132	      3.47256821	      3.65019723	    -10.01280952	     14.17679903	     31.76172880	     74.61751401	     11.50644993	    -10.90549559	      6.49301999	     24.90842891	     73.59159651
